<svg width="500px" height="500px" viewBox="1042 606 500 500" version="1.1" xmlns="http://www.w3.org/2000/svg" xmlns:xlink="http://www.w3.org/1999/xlink">
    <defs>
        <polygon id="path-1" points="147.356 0.0084352973 147.356 198.9998 0.0004 198.9998 0.0004 0.0084352973 147.356 0.0084352973"></polygon>
    </defs>
    <g id="Group-2" stroke="none" stroke-width="1" fill="none" fill-rule="evenodd" transform="translate(1042.000000, 606.000000)">
        <g id="Group-4"></g>
        <g id="Page-1" transform="translate(176.000000, 150.000000)">
            <g id="Group-3" transform="translate(0.000000, 0.992000)">
                <mask id="mask-2" fill="white">
                    <use xlink:href="#path-1"></use>
                </mask>
                <g id="Clip-2"></g>
                <path d="M117.0484,135.2778 L95.8014,135.2778 C96.0434,100.5738 99.8794,70.9058 107.5164,44.7008 C108.4344,41.5498 108.8984,38.2838 108.8984,34.9838 C108.8984,14.3638 90.8254,-2.0722 69.6194,0.2228 C53.7604,1.9928 40.7814,14.6818 38.7564,30.3948 C38.2194,34.5458 38.4084,38.6808 39.3184,42.6828 C47.4954,78.7268 51.3974,108.2118 51.5624,135.2778 L30.3084,135.2778 C13.5964,135.2778 0.0004,148.7818 0.0004,165.3838 L0.0004,194.7658 C0.0004,197.1058 1.9084,198.9998 4.2624,198.9998 L143.0934,198.9998 C145.4474,198.9998 147.3564,197.1058 147.3564,194.7658 L147.3564,165.3838 C147.3554,148.7818 133.7604,135.2778 117.0484,135.2778" id="Fill-1" fill="#212121" mask="url(#mask-2)"></path>
            </g>
            <path d="M138.968,191.1885 L9.572,191.1885 L9.572,166.0975 C9.572,154.1955 19.275,144.5095 31.204,144.5095 L117.338,144.5095 C129.265,144.5095 138.968,154.1955 138.968,166.0975 L138.968,191.1885 Z" id="Fill-4" fill="#B81E5F"></path>
            <path d="M48.813,33.3587 C50.273,21.5697 59.621,12.0517 71.04,10.7277 C86.391,8.8837 99.403,21.3407 99.403,36.8437 C99.403,39.3227 99.068,41.7777 98.409,44.1387 C90.926,70.8857 87.168,101.0587 86.936,136.2697 L61.068,136.2697 C60.912,108.8057 57.136,78.9857 49.217,42.6267 C48.56,39.6177 48.425,36.5027 48.813,33.3587" id="Fill-6" fill="#B81E5F"></path>
        </g>
    </g>
</svg>