<svg width="500px" height="500px" viewBox="628 630 500 500" version="1.1" xmlns="http://www.w3.org/2000/svg" xmlns:xlink="http://www.w3.org/1999/xlink">
    <defs>
        <polygon id="path-1" points="201.5151 0.356 403.03 0.356 403.03 450 201.5151 450 0.0002 450 0.0002 0.356 201.5151 0.356"></polygon>
    </defs>
    <g id="Group-2" stroke="none" stroke-width="1" fill="none" fill-rule="evenodd" transform="translate(628.000000, 630.000000)">
        <g id="Page-1" transform="translate(48.000000, 25.000000)">
            <g id="Group-3" transform="translate(0.000000, 0.644000)">
                <mask id="mask-2" fill="white">
                    <use xlink:href="#path-1"></use>
                </mask>
                <g id="Clip-2"></g>
                <path d="M398.3362,152.524 C395.3542,149.694 391.2892,148.195 387.1842,148.412 L348.6442,150.44 L348.6442,90.726 C353.2722,88.156 356.4132,83.221 356.4132,77.562 L356.4132,15.409 C356.4132,7.108 349.6612,0.356 341.3602,0.356 L15.0532,0.356 C6.7522,0.356 0.0002,7.108 0.0002,15.409 L0.0002,77.562 C0.0002,83.221 3.1412,88.156 7.7692,90.726 L7.7692,344.091 C3.1412,346.661 0.0002,351.596 0.0002,357.255 L0.0002,434.947 C0.0002,443.248 6.7522,450 15.0532,450 L341.3602,450 C349.6612,450 356.4132,443.248 356.4132,434.947 L356.4132,357.255 C356.4132,351.596 353.2722,346.661 348.6442,344.091 L348.6442,206.685 L387.1842,208.714 C387.4452,208.727 387.7062,208.734 387.9662,208.734 C391.8012,208.734 395.5442,207.252 398.3372,204.602 C401.3182,201.773 403.0302,197.792 403.0302,193.682 L403.0302,163.444 C403.0292,159.333 401.3172,155.353 398.3362,152.524" id="Fill-1" fill="#212121" mask="url(#mask-2)"></path>
            </g>
            <path d="M388.4615,194.3255 C388.4615,194.3825 388.4615,194.5345 388.3105,194.6775 C388.1605,194.8215 388.0055,194.8125 387.9505,194.8105 L255.4135,187.8345 L255.4135,170.5775 L387.9505,163.6015 C388.0105,163.6005 388.1585,163.5915 388.3105,163.7345 C388.4615,163.8775 388.4615,164.0295 388.4615,164.0865 L388.4615,194.3255 Z" id="Fill-4" fill="#B81E5F"></path>
            <path d="M334.0769,342.846 L22.3369,342.846 L22.3369,93.259 L76.1129,93.259 C84.0859,93.259 91.4879,97.221 95.9099,103.855 L99.8529,109.769 L92.7449,109.769 C71.5939,109.769 54.3849,126.978 54.3849,148.13 L54.3849,203 L53.8949,203 L53.8619,203 L46.1299,203 C42.1059,203 38.8459,206.261 38.8459,210.284 C38.8459,214.212 41.9589,217.406 45.8519,217.554 L38.8819,287.251 C38.6769,289.299 39.3479,291.338 40.7289,292.864 C42.1099,294.389 44.0719,295.259 46.1299,295.259 L77.2069,295.259 C79.2649,295.259 81.2259,294.389 82.6069,292.864 C83.9879,291.338 84.6589,289.299 84.4549,287.251 L77.4849,217.554 C81.3779,217.406 84.4899,214.213 84.4899,210.284 C84.4899,206.261 81.2299,203 77.2069,203 L69.4779,203 L69.4389,203 L68.9519,203 L68.9519,148.13 C68.9519,135.01 79.6249,124.336 92.7449,124.336 L109.6359,124.336 C113.5039,129.564 118.5609,133.654 124.3079,136.317 L124.3079,155.899 C124.3079,162.066 128.0389,167.372 133.3599,169.696 L140.0639,196.512 C140.8749,199.754 143.7879,202.029 147.1299,202.029 L155.3849,202.029 L155.3849,210.284 C155.3849,214.306 158.6449,217.567 162.6679,217.567 C166.6919,217.567 169.9519,214.306 169.9519,210.284 L169.9519,202.029 L186.4619,202.029 L186.4619,210.284 C186.4619,214.306 189.7219,217.567 193.7449,217.567 C197.7689,217.567 201.0289,214.306 201.0289,210.284 L201.0289,202.029 L209.2839,202.029 C212.6249,202.029 215.5389,199.754 216.3499,196.512 L218.8549,186.49 L240.8459,186.49 L240.8459,202.514 C240.8459,206.537 244.1059,209.798 248.1299,209.798 C252.1529,209.798 255.4139,206.537 255.4139,202.514 L255.4139,202.422 L334.0769,206.562 L334.0769,342.846 Z" id="Fill-6" fill="#B81E5F"></path>
            <polygon id="Fill-8" fill="#B81E5F" points="69.1588 280.6921 54.1778 280.6921 60.4898 217.5671 62.8458 217.5671"></polygon>
            <path d="M14.5673,16.0527 C14.5673,15.7847 14.7863,15.5667 15.0533,15.5667 L341.3603,15.5667 C341.6273,15.5667 341.8463,15.7847 341.8463,16.0527 L341.8463,78.2067 C341.8463,78.4747 341.6273,78.6917 341.3603,78.6917 L280.3003,78.6917 C267.4453,78.6917 255.5123,85.0787 248.3823,95.7737 L235.7563,114.7127 C231.3333,121.3467 223.9323,125.3077 215.9593,125.3077 L140.4543,125.3077 C132.4803,125.3077 125.0783,121.3467 120.6563,114.7127 L108.0303,95.7737 C100.9003,85.0787 88.9683,78.6917 76.1133,78.6917 L15.0533,78.6917 C14.7863,78.6917 14.5673,78.4747 14.5673,78.2067 L14.5673,16.0527 Z" id="Fill-10" fill="#B81E5F"></path>
            <path d="M38.3606,54.4133 L53.8986,54.4133 C57.9226,54.4133 61.1826,51.1523 61.1826,47.1293 C61.1826,43.1073 57.9226,39.8463 53.8986,39.8463 L38.3606,39.8463 C34.3376,39.8463 31.0766,43.1073 31.0766,47.1293 C31.0766,51.1523 34.3376,54.4133 38.3606,54.4133" id="Fill-12" fill="#212121"></path>
            <path d="M77.2067,54.4133 L92.7447,54.4133 C96.7687,54.4133 100.0287,51.1523 100.0287,47.1293 C100.0287,43.1073 96.7687,39.8463 92.7447,39.8463 L77.2067,39.8463 C73.1837,39.8463 69.9227,43.1073 69.9227,47.1293 C69.9227,51.1523 73.1837,54.4133 77.2067,54.4133" id="Fill-14" fill="#212121"></path>
            <path d="M263.6683,54.4133 L279.2063,54.4133 C283.2303,54.4133 286.4903,51.1523 286.4903,47.1293 C286.4903,43.1073 283.2303,39.8463 279.2063,39.8463 L263.6683,39.8463 C259.6453,39.8463 256.3843,43.1073 256.3843,47.1293 C256.3843,51.1523 259.6453,54.4133 263.6683,54.4133" id="Fill-16" fill="#212121"></path>
            <path d="M302.5144,54.4133 L318.0524,54.4133 C322.0764,54.4133 325.3364,51.1523 325.3364,47.1293 C325.3364,43.1073 322.0764,39.8463 318.0524,39.8463 L302.5144,39.8463 C298.4914,39.8463 295.2304,43.1073 295.2304,47.1293 C295.2304,51.1523 298.4914,54.4133 302.5144,54.4133" id="Fill-18" fill="#212121"></path>
            <path d="M178.2067,108.7979 C188.3247,108.7979 197.5357,104.8529 204.3967,98.4289 C204.7727,98.1729 205.1317,97.8809 205.4647,97.5459 C205.7937,97.2159 206.0797,96.8599 206.3317,96.4879 C212.6777,89.6409 216.5677,80.4869 216.5677,70.4369 C216.5677,49.2859 199.3587,32.0769 178.2067,32.0769 C168.0897,32.0769 158.8797,36.0209 152.0187,42.4439 C151.6417,42.7009 151.2817,42.9939 150.9487,43.3299 C150.6197,43.6599 150.3337,44.0159 150.0817,44.3879 C143.7357,51.2339 139.8467,60.3879 139.8467,70.4369 C139.8467,91.5889 157.0547,108.7979 178.2067,108.7979 M154.4137,70.4369 C154.4137,66.5499 155.3567,62.8809 157.0167,59.6359 L189.1247,91.5669 C185.8517,93.2649 182.1407,94.2309 178.2067,94.2309 C165.0867,94.2309 154.4137,83.5569 154.4137,70.4369 M201.9997,70.4369 C201.9997,74.3249 201.0567,77.9939 199.3967,81.2389 L167.2887,49.3079 C170.5617,47.6089 174.2727,46.6439 178.2067,46.6439 C191.3267,46.6439 201.9997,57.3179 201.9997,70.4369" id="Fill-20" fill="#212121"></path>
            <path d="M138.875,404.9998 L138.875,388.9758 C138.875,388.7078 139.094,388.4898 139.361,388.4898 L217.053,388.4898 C217.32,388.4898 217.538,388.7078 217.538,388.9758 L217.538,404.9998 L138.875,404.9998 Z" id="Fill-22" fill="#B81E5F"></path>
            <path d="M341.8462,435.5911 C341.8462,435.8591 341.6272,436.0771 341.3602,436.0771 L15.0532,436.0771 C14.7862,436.0771 14.5672,435.8591 14.5672,435.5911 L14.5672,357.8991 C14.5672,357.6311 14.7862,357.4131 15.0532,357.4131 L31.0772,357.4131 L31.0772,412.2831 C31.0772,416.3061 34.3372,419.5671 38.3602,419.5671 L318.0532,419.5671 C322.0762,419.5671 325.3362,416.3061 325.3362,412.2831 L325.3362,357.4131 L341.3602,357.4131 C341.6272,357.4131 341.8462,357.6311 341.8462,357.8991 L341.8462,435.5911 Z" id="Fill-24" fill="#B81E5F"></path>
            <path d="M310.7692,357.4132 L310.7692,405.0002 L232.1062,405.0002 L232.1062,388.9752 C232.1062,380.6752 225.3532,373.9232 217.0532,373.9232 L139.3602,373.9232 C131.0602,373.9232 124.3082,380.6752 124.3082,388.9752 L124.3082,405.0002 L45.6442,405.0002 L45.6442,357.4132 L310.7692,357.4132 Z" id="Fill-26" fill="#B81E5F"></path>
            <path d="M140.4541,139.8748 L215.9591,139.8748 C216.4891,139.8748 217.0131,139.8478 217.5381,139.8258 L217.5381,155.8988 C217.5381,156.1668 217.3201,156.3848 217.0531,156.3848 L139.3601,156.3848 C139.0931,156.3848 138.8751,156.1668 138.8751,155.8988 L138.8751,139.8258 C139.4001,139.8478 139.9251,139.8748 140.4541,139.8748" id="Fill-28" fill="#B81E5F"></path>
            <polygon id="Fill-30" fill="#B81E5F" points="152.8159 187.4613 148.6889 170.9513 207.7229 170.9513 203.5959 187.4613"></polygon>
            <path d="M255.4135,155.9911 L255.4135,155.8991 C255.4135,151.8761 252.1535,148.6151 248.1295,148.6151 C244.1065,148.6151 240.8465,151.8761 240.8465,155.8991 L240.8465,171.9231 L222.4975,171.9231 L223.0535,169.6961 C228.3745,167.3731 232.1055,162.0671 232.1055,155.8991 L232.1055,136.3171 C238.4095,133.3941 243.8935,128.7681 247.8765,122.7921 L260.5025,103.8541 C264.9245,97.2211 272.3265,93.2591 280.3005,93.2591 L334.0765,93.2591 L334.0765,151.8511 L255.4135,155.9911 Z" id="Fill-32" fill="#B81E5F"></path>
        </g>
        <g id="Group-4"></g>
    </g>
</svg>