<svg width="500px" height="500px" viewBox="1195 -783 500 500" version="1.1" xmlns="http://www.w3.org/2000/svg" xmlns:xlink="http://www.w3.org/1999/xlink">
    <defs>
        <polygon id="path-1" points="0 248 284 248 284 0.88 0 0.88"></polygon>
    </defs>
    <g id="Group-2" stroke="none" stroke-width="1" fill="none" fill-rule="evenodd" transform="translate(1195.000000, -783.000000)">
        <g id="Group-4"></g>
        <g id="Page-1" transform="translate(108.000000, 125.000000)">
            <g id="Group-3" transform="translate(0.000000, 0.120000)">
                <mask id="mask-2" fill="white">
                    <use xlink:href="#path-1"></use>
                </mask>
                <g id="Clip-2"></g>
                <path d="M284,200.7613 C284,222.7013 272.361,234.2953 262.596,240.1583 C252.266,246.3613 241.104,248.0003 236.644,248.0003 L73.272,248.0003 C68.813,248.0003 57.65,246.3613 47.319,240.1583 C37.651,234.3533 26.144,222.9263 25.919,201.4033 L0.122,71.9173 C-0.313,69.7333 0.431,67.4813 2.08,65.9853 C3.73,64.4893 6.042,63.9703 8.175,64.6153 L52.132,77.9363 C54.161,78.5513 55.748,80.1413 56.361,82.1703 L64.405,108.8303 C65.57,107.6833 66.752,106.5623 67.956,105.4653 L67.956,57.5013 C67.956,26.2803 92.142,0.8793 121.87,0.8793 L188.043,0.8793 C217.771,0.8793 241.958,26.2803 241.958,57.5013 L241.958,105.5373 C267.781,129.1493 284,163.0953 284,200.7613 L284,200.7613 Z M80.629,95.2883 C87.416,90.5093 94.637,86.4023 102.18,83.0203 C104.196,74.1943 108.405,66.0133 114.469,59.1863 C123.325,49.2133 135.517,42.9073 148.62,41.3603 L148.62,36.3993 C148.62,32.8993 151.457,30.0623 154.957,30.0623 C158.457,30.0623 161.294,32.8993 161.294,36.3993 L161.294,41.3583 C171.942,42.6143 182.037,47.0113 190.23,54.0543 C199.03,61.6183 205.16,71.7993 207.73,83.0083 C215.333,86.4283 222.544,90.5633 229.284,95.3283 L229.284,57.5003 C229.284,33.2673 210.783,13.5523 188.042,13.5523 L121.87,13.5523 C99.13,13.5523 80.628,33.2673 80.628,57.5003 L80.628,95.2883 L80.629,95.2883 Z" id="Fill-1" fill="#222222" mask="url(#mask-2)"></path>
            </g>
            <path d="M271.327,200.8813 C271.327,136.7153 219.124,84.5123 154.958,84.5123 C121.728,84.5123 90.004,98.7743 67.919,123.6393 C67.456,124.1603 66.279,125.5433 66.132,125.7003 C48.375,146.6603 38.616,173.2073 38.589,200.7683 C38.59,200.8463 38.59,200.9253 38.589,201.0023 C38.673,233.9643 72.925,235.4473 73.272,235.4473 L236.644,235.4473 C236.992,235.4473 271.327,233.9603 271.327,200.8813" id="Fill-4" fill="#30DCA6"></path>
            <path d="M54.4747,119.9127 L45.2077,89.2007 L14.6157,79.9297 L31.3337,163.8417 C36.0967,147.9287 43.9197,133.0007 54.4747,119.9127" id="Fill-6" fill="#30DCA6"></path>
            <path d="M154.9577,53.7793 C143.1167,53.7793 131.8127,58.8613 123.9437,67.7223 C121.3387,70.6553 119.1807,73.9143 117.5157,77.4013 C129.5417,73.7503 142.1497,71.8393 154.9587,71.8393 C167.9827,71.8393 180.5647,73.7803 192.4267,77.3853 C185.7317,63.2203 171.3947,53.7793 154.9577,53.7793" id="Fill-8" fill="#30DCA6"></path>
        </g>
    </g>
</svg>