<svg width="500px" height="500px" viewBox="1232 -365 500 500" version="1.1" xmlns="http://www.w3.org/2000/svg" xmlns:xlink="http://www.w3.org/1999/xlink">
    <defs>
        <polygon id="path-1" points="59.33595 0.165 0 0.165 0 200 59.33595 200 118.6719 200 118.6719 0.165 59.33595 0.165"></polygon>
    </defs>
    <g id="Group-2" stroke="none" stroke-width="1" fill="none" fill-rule="evenodd" transform="translate(1232.000000, -365.000000)">
        <g id="Group-4"></g>
        <g id="Page-1" transform="translate(191.000000, 149.000000)">
            <g id="Group-3" transform="translate(0.000000, 0.835000)">
                <mask id="mask-2" fill="white">
                    <use xlink:href="#path-1"></use>
                </mask>
                <g id="Clip-2"></g>
                <path d="M59.3359,200 C54.1079,200 49.2289,197.925 45.5979,194.155 C41.9879,190.409 40.0879,185.479 40.2469,180.275 L40.2379,116.104 C16.4549,107.966 -0.0001,85.072 -0.0001,59.781 C-0.0001,33.868 17.2729,10.472 42.0059,2.886 C42.3459,2.779 50.7879,0.165 59.3359,0.165 C67.8849,0.165 76.3259,2.779 76.6809,2.891 C101.3989,10.472 118.6719,33.868 118.6719,59.781 C118.6719,85.073 102.2179,107.967 78.4339,116.104 L78.4269,180.352 C78.5849,185.48 76.6839,190.41 73.0739,194.155 C69.4429,197.925 64.5639,200 59.3359,200" id="Fill-1" fill="#222222" mask="url(#mask-2)"></path>
            </g>
            <path d="M59.3361,110.2952 C32.0151,110.2952 9.7881,88.0092 9.7881,60.6162 C9.7881,33.2222 32.0151,10.9372 59.3361,10.9372 C86.6571,10.9372 108.8841,33.2232 108.8841,60.6162 C108.8841,88.0092 86.6571,110.2952 59.3361,110.2952" id="Fill-4" fill="#30DCA6"></path>
            <path d="M34.2949,39.8174 L38.6509,39.8174 L38.6509,35.4594 C37.0649,36.7734 35.6069,38.2304 34.2949,39.8174 L34.2949,39.8174 Z M47.3139,39.8174 L54.9449,39.8174 L54.9449,28.2864 C52.3249,28.6424 49.7659,29.3174 47.3139,30.2974 L47.3139,39.8174 Z M63.6069,39.8174 L71.3579,39.8174 L71.3579,30.2974 C68.8719,29.3034 66.2719,28.6244 63.6069,28.2734 L63.6069,39.8174 Z M80.0209,39.8174 L84.3769,39.8174 C83.0639,38.2304 81.6069,36.7734 80.0209,35.4604 L80.0209,39.8174 Z M27.0889,56.2734 L38.6509,56.2734 L38.6509,48.4974 L29.1279,48.4974 C28.1279,50.9934 27.4449,53.6014 27.0889,56.2734 L27.0889,56.2734 Z M47.3139,56.2734 L54.9449,56.2734 L54.9449,48.4984 L47.3139,48.4984 L47.3139,56.2734 Z M63.6069,56.2734 L71.3569,56.2734 L71.3569,48.4984 L63.6069,48.4984 L63.6069,56.2734 Z M80.0209,56.2734 L91.5829,56.2734 C91.2269,53.6014 90.5439,50.9934 89.5439,48.4974 L80.0209,48.4974 L80.0209,56.2734 Z M29.0809,72.6094 L38.6509,72.6094 L38.6509,64.9534 L27.0889,64.9534 C27.4399,67.5814 28.1079,70.1494 29.0809,72.6094 L29.0809,72.6094 Z M47.3139,72.6094 L54.9449,72.6094 L54.9449,64.9524 L47.3139,64.9524 L47.3139,72.6094 Z M63.6069,72.6094 L71.3569,72.6094 L71.3569,64.9524 L63.6069,64.9524 L63.6069,72.6094 Z M80.0209,72.6094 L89.5899,72.6094 C90.5649,70.1494 91.2329,67.5814 91.5829,64.9534 L80.0209,64.9534 L80.0209,72.6094 Z M80.0209,81.2894 L80.0209,85.7664 C81.6459,84.4214 83.1349,82.9234 84.4739,81.2894 L80.0209,81.2894 Z M34.1979,81.2904 C35.5369,82.9234 37.0259,84.4214 38.6509,85.7674 L38.6509,81.2904 L34.1979,81.2904 Z M47.3139,90.9284 C49.7659,91.9094 52.3249,92.5844 54.9449,92.9404 L54.9449,81.2904 L47.3139,81.2904 L47.3139,90.9284 Z M63.6069,81.2904 L63.6069,92.9534 C66.2719,92.6024 68.8719,91.9234 71.3579,90.9284 L71.3579,81.2904 L63.6069,81.2904 Z M59.3369,101.9174 C53.0299,101.9174 46.9709,100.5174 41.3279,97.7574 C41.1679,97.6974 40.9469,97.5864 40.7359,97.4584 C32.9629,93.5194 26.4679,86.9954 22.5159,79.1264 C22.4269,78.9854 22.3189,78.7684 22.2289,78.5394 C19.5249,72.9694 18.1389,66.9144 18.1389,60.6134 C18.1389,45.2464 26.5779,31.2514 40.1709,24.0604 C40.7189,23.5904 41.3729,23.2654 42.0759,23.1144 C47.2479,20.7124 52.7699,19.4364 58.4929,19.3214 C59.0059,19.2274 59.5419,19.2274 60.0499,19.3184 C65.8219,19.4184 71.3869,20.6944 76.5959,23.1144 C77.2989,23.2644 77.9539,23.5894 78.5019,24.0604 C92.0949,31.2514 100.5339,45.2454 100.5339,60.6134 C100.5339,66.9014 99.1529,72.9454 96.4289,78.5764 C96.3419,78.7914 96.2389,78.9964 96.1219,79.1924 C92.2069,86.9954 85.7119,93.5194 77.8689,97.4954 C77.7269,97.5854 77.5059,97.6964 77.2749,97.7884 C71.7029,100.5174 65.6439,101.9174 59.3369,101.9174 L59.3369,101.9174 Z" id="Fill-6" fill="#222222"></path>
            <path d="M68.6441,139.6918 L68.6391,181.2458 C68.7291,183.9248 67.8021,186.3418 66.0321,188.1798 C64.2611,190.0168 61.8841,191.0288 59.3361,191.0288 C56.7881,191.0288 54.4101,190.0168 52.6401,188.1798 C50.8701,186.3428 49.9441,183.9248 50.0311,181.3718 C50.0331,181.3298 50.0261,116.8338 50.0261,116.8338 C53.0571,117.3358 56.1661,117.6018 59.3361,117.6018 C62.5061,117.6018 65.6161,117.3358 68.6461,116.8338 L68.6451,120.6848 L68.6441,139.6918 Z" id="Fill-8" fill="#30DCA6"></path>
        </g>
    </g>
</svg>