<svg width="500px" height="500px" viewBox="1233 105 500 500" version="1.1" xmlns="http://www.w3.org/2000/svg" xmlns:xlink="http://www.w3.org/1999/xlink">
    <defs>
        <polygon id="path-1" points="0.598447491 0.989 34.9295969 0.989 34.9295969 56.8864386 0.598447491 56.8864386 0.598447491 0.989"></polygon>
    </defs>
    <g id="Group-2" stroke="none" stroke-width="1" fill="none" fill-rule="evenodd" transform="translate(1233.000000, 105.000000)">
        <g id="Group-4"></g>
        <g id="Page-1" transform="translate(177.000000, 177.000000)">
            <path d="M83.0282,92.8221 C80.6822,85.6861 76.8962,79.4631 71.7732,74.3261 C65.5002,68.0351 57.5672,63.8051 48.6692,61.7601 C48.4632,61.6951 48.2482,61.6511 48.0292,61.6191 C37.9572,59.4351 26.6832,60.0261 15.1892,63.5881 C15.1782,63.5911 15.1682,63.5941 15.1572,63.5971 C15.1472,63.6011 15.1362,63.6041 15.1252,63.6071 C15.1052,63.6131 15.0852,63.6231 15.0662,63.6301 C14.9422,63.6701 14.8192,63.7161 14.6992,63.7691 C14.6602,63.7861 14.6212,63.8051 14.5822,63.8241 C14.4782,63.8731 14.3752,63.9271 14.2752,63.9861 C14.2362,64.0081 14.1982,64.0301 14.1602,64.0541 C14.0582,64.1171 13.9612,64.1861 13.8642,64.2591 C13.8342,64.2821 13.8032,64.3021 13.7742,64.3261 C13.6522,64.4231 13.5342,64.5261 13.4212,64.6391 C13.3082,64.7521 13.2052,64.8711 13.1082,64.9931 C13.0852,65.0211 13.0652,65.0511 13.0442,65.0801 C12.9692,65.1781 12.9002,65.2781 12.8362,65.3811 C12.8132,65.4171 12.7922,65.4551 12.7712,65.4921 C12.7112,65.5951 12.6562,65.7001 12.6062,65.8071 C12.5882,65.8441 12.5712,65.8801 12.5542,65.9181 C12.4992,66.0431 12.4512,66.1711 12.4102,66.3001 C12.4042,66.3161 12.3962,66.3321 12.3912,66.3481 C12.3792,66.3891 12.3752,66.4041 12.3712,66.4191 C8.8202,77.9401 8.2312,89.2401 10.4092,99.3361 C10.4412,99.5571 10.4852,99.7741 10.5502,99.9821 C12.5892,108.9031 16.8082,116.8571 23.0832,123.1481 C32.2502,132.3401 44.9482,137.1391 59.0332,137.1381 C65.6792,137.1381 72.6362,136.0681 79.6722,133.8871 C79.7092,133.8761 79.7212,133.8731 79.7332,133.8691 C79.7582,133.8611 79.7822,133.8491 79.8072,133.8411 C79.9242,133.8021 80.0392,133.7591 80.1532,133.7101 C80.1972,133.6901 80.2412,133.6691 80.2842,133.6491 C80.3832,133.6011 80.4802,133.5501 80.5762,133.4951 C80.6192,133.4701 80.6622,133.4461 80.7042,133.4191 C80.7992,133.3591 80.8902,133.2941 80.9812,133.2261 C81.0172,133.1991 81.0542,133.1751 81.0882,133.1471 C81.2082,133.0511 81.3242,132.9491 81.4352,132.8381 C81.5492,132.7251 81.6512,132.6071 81.7482,132.4851 C81.7732,132.4531 81.7962,132.4191 81.8202,132.3861 C81.8912,132.2921 81.9582,132.1961 82.0192,132.0971 C82.0442,132.0581 82.0662,132.0181 82.0892,131.9791 C82.1472,131.8781 82.2012,131.7761 82.2502,131.6731 C82.2682,131.6331 82.2872,131.5951 82.3052,131.5551 C82.3582,131.4331 82.4042,131.3091 82.4452,131.1831 C82.4512,131.1641 82.4602,131.1461 82.4662,131.1281 C82.4692,131.1191 82.4712,131.1091 82.4742,131.1001 C82.4782,131.0851 82.4832,131.0691 82.4872,131.0541 C84.6052,124.1821 85.2612,117.2841 85.7242,110.5991 C86.3042,102.2111 83.7452,95.0041 83.0282,92.8221" id="Fill-1" fill="#212121"></path>
            <g id="Group-5" transform="translate(56.000000, 0.011000)">
                <mask id="mask-2" fill="white">
                    <use xlink:href="#path-1"></use>
                </mask>
                <g id="Clip-4"></g>
                <path d="M21.9323,1.5685 L17.5023,4.1255 C1.3373,13.4595 -4.2007,34.1295 5.1323,50.2945 L7.6893,54.7245 C8.8833,56.7915 11.5273,57.5005 13.5953,56.3065 L18.0253,53.7495 C34.1903,44.4165 39.7293,23.7465 30.3953,7.5805 L27.8383,3.1515 C26.6443,1.0835 24.0003,0.3745 21.9323,1.5685" id="Fill-3" fill="#212121" mask="url(#mask-2)"></path>
            </g>
            <path d="M78.9072,11.9152 C85.8522,23.9452 81.7312,39.3262 69.7012,46.2712 L69.0162,46.6672 L68.6202,45.9812 C61.6752,33.9522 65.7972,18.5712 77.8262,11.6252 L78.5112,11.2302 L78.9072,11.9152 Z" id="Fill-6" fill="#5BC09C"></path>
            <path d="M43.8338,45.9584 L43.7448,40.8444 C43.4188,22.1814 28.0258,7.3154 9.3618,7.6414 L4.2478,7.7304 C1.8608,7.7724 -0.0412,9.7414 0.0008,12.1294 L0.0898,17.2434 C0.4158,35.9064 15.8088,50.7714 34.4728,50.4464 L39.5868,50.3564 C41.9738,50.3154 43.8758,48.3454 43.8338,45.9584" id="Fill-8" fill="#212121"></path>
            <path d="M34.3215,41.8002 C20.4335,42.0422 8.9785,30.9812 8.7355,17.0922 L8.7225,16.3012 L9.5135,16.2872 C23.4015,16.0452 34.8565,27.1072 35.0985,40.9952 L35.1125,41.7862 L34.3215,41.8002 Z" id="Fill-10" fill="#5BC09C"></path>
            <g id="Group-14" transform="translate(98.000000, 106.011000)" fill="#212121">
                <path d="M45.3178,1.486 L40.2658,0.686 C21.8298,-2.234 4.5168,10.344 1.5968,28.78 L0.7968,33.832 C0.4238,36.191 2.0328,38.405 4.3908,38.779 L9.4428,39.579 C27.8798,42.499 45.1918,29.921 48.1118,11.484 L48.9118,6.433 C49.2858,4.074 47.6758,1.86 45.3178,1.486" id="Fill-12"></path>
            </g>
            <path d="M137.571,116.1427 C135.398,129.8627 122.515,139.2217 108.796,137.0487 L108.014,136.9257 L108.138,136.1437 C110.311,122.4247 123.194,113.0647 136.913,115.2377 L137.695,115.3617 L137.571,116.1427 Z" id="Fill-15" fill="#5BC09C"></path>
            <path d="M43.2817,69.21 L43.2817,88.696 L24.4447,69.809 C31.0097,68.51 37.3727,68.327 43.2817,69.21" id="Fill-17" fill="#5BC09C"></path>
            <path d="M37.4143,94.5783 L17.9793,94.5783 C17.0993,88.6533 17.2813,82.2733 18.5773,75.6913 L37.4143,94.5783 Z" id="Fill-19" fill="#5BC09C"></path>
            <path d="M28.9492,117.2665 C24.9402,113.2465 21.9512,108.3675 20.0232,102.8965 L45.7112,102.8965 L70.4152,127.6665 C54.0162,130.9115 38.8662,127.2105 28.9492,117.2665" id="Fill-21" fill="#5BC09C"></path>
            <path d="M77.428,110.5622 C77.354,114.2412 77.021,117.9952 76.276,121.7802 L51.576,97.0142 L51.576,71.2582 C57.032,73.1922 61.899,76.1882 65.908,80.2082 C70.104,84.4162 73.217,89.5352 75.149,95.4262 C76.802,100.4632 77.46,108.9562 77.428,110.5622" id="Fill-23" fill="#5BC09C"></path>
            <path d="M79.2267,107.1359 C82.1107,113.1849 85.2537,119.3599 89.7467,124.9749 C89.7567,124.9869 89.7667,124.9999 89.7757,125.0119 C89.7827,125.0199 89.7877,125.0279 89.7937,125.0349 C89.8057,125.0509 89.8207,125.0639 89.8337,125.0789 C89.9177,125.1809 90.0067,125.2789 90.1007,125.3739 C90.1317,125.4039 90.1637,125.4329 90.1947,125.4629 C90.2787,125.5409 90.3657,125.6169 90.4567,125.6889 C90.4927,125.7169 90.5277,125.7459 90.5647,125.7729 C90.6587,125.8419 90.7557,125.9069 90.8567,125.9689 C90.8907,125.9899 90.9247,126.0139 90.9597,126.0339 C91.0947,126.1119 91.2327,126.1839 91.3807,126.2479 C91.5247,126.3109 91.6697,126.3629 91.8167,126.4079 C91.8587,126.4209 91.9027,126.4299 91.9457,126.4419 C92.0547,126.4719 92.1637,126.4989 92.2747,126.5199 C92.3227,126.5289 92.3717,126.5359 92.4207,126.5429 C92.5307,126.5599 92.6397,126.5719 92.7487,126.5789 C92.7967,126.5819 92.8447,126.5859 92.8927,126.5879 C93.0167,126.5919 93.1407,126.5899 93.2627,126.5829 C93.2897,126.5819 93.3157,126.5839 93.3427,126.5819 C93.3547,126.5809 93.3677,126.5789 93.4057,126.5759 C100.7507,126.0219 107.6157,124.4629 113.7977,122.0229 C126.8987,116.8529 136.9487,107.7269 142.1007,95.8119 C145.6267,87.6559 146.6317,78.7089 145.2527,69.6619 C145.2367,69.4439 145.1987,69.2259 145.1477,69.0089 C143.4667,58.8189 138.7697,48.5239 131.2377,39.1109 C131.2277,39.0989 131.2187,39.0859 131.1927,39.0529 C131.1817,39.0399 131.1687,39.0279 131.1577,39.0149 C131.0717,38.9099 130.9797,38.8089 130.8827,38.7119 C130.8537,38.6839 130.8237,38.6559 130.7947,38.6279 C130.7087,38.5469 130.6187,38.4699 130.5247,38.3959 C130.4917,38.3689 130.4587,38.3419 130.4237,38.3169 C130.3267,38.2439 130.2247,38.1769 130.1207,38.1129 C130.0897,38.0939 130.0597,38.0739 130.0287,38.0559 C129.8937,37.9779 129.7537,37.9049 129.6077,37.8409 C129.4607,37.7769 129.3127,37.7249 129.1637,37.6789 C129.1287,37.6679 129.0917,37.6609 129.0557,37.6499 C128.9387,37.6179 128.8227,37.5899 128.7057,37.5679 C128.6607,37.5599 128.6177,37.5529 128.5727,37.5469 C128.4577,37.5289 128.3427,37.5169 128.2287,37.5089 C128.1847,37.5059 128.1417,37.5019 128.0987,37.5009 C127.9677,37.4959 127.8367,37.4979 127.7067,37.5059 C127.6857,37.5069 127.6647,37.5049 127.6427,37.5069 C127.6317,37.5079 127.6207,37.5089 127.6097,37.5099 C127.5987,37.5109 127.5877,37.5119 127.5767,37.5129 C115.5777,38.4189 104.8737,42.0089 96.3077,47.7379 C96.1157,47.8479 95.9317,47.9679 95.7637,48.1039 C88.2377,53.2729 82.4117,60.1199 78.8857,68.2749 C76.0067,74.9329 74.7697,82.1119 75.2077,89.6109 C75.3417,91.9039 75.6077,99.5459 79.2267,107.1359" id="Fill-25" fill="#212121"></path>
            <path d="M121.2516,46.6968 L110.6636,71.1808 L103.5096,53.0558 C108.6826,50.0648 114.6686,47.8988 121.2516,46.6968" id="Fill-27" fill="#5BC09C"></path>
            <path d="M128.8689,50.0144 C132.4909,55.6614 135.0029,61.5284 136.3589,67.3634 L118.2809,74.4984 L128.8689,50.0144 Z" id="Fill-29" fill="#5BC09C"></path>
            <path d="M99.7328,117.3911 L113.6178,85.2811 L137.5118,75.8501 C137.7268,81.6471 136.7378,87.2831 134.4848,92.4941 C128.9108,105.3851 116.1768,114.3891 99.7328,117.3911" id="Fill-31" fill="#5BC09C"></path>
            <path d="M83.4924,89.1406 C83.1274,82.9516 84.1434,77.0476 86.5014,71.5926 C88.7554,66.3816 92.1814,61.8076 96.5464,58.0066 L106.0024,81.9636 L92.1194,114.0676 C90.0374,110.8206 88.3484,107.4506 86.9294,104.0566 C86.3104,102.5736 83.8044,94.4326 83.4924,89.1406" id="Fill-33" fill="#5BC09C"></path>
        </g>
    </g>
</svg>