<svg width="500px" height="500px" viewBox="658 -319 500 500" version="1.1" xmlns="http://www.w3.org/2000/svg" xmlns:xlink="http://www.w3.org/1999/xlink">
    <defs>
        <polygon id="path-1" points="0 0.0504 0 210 267.553442 210 267.553442 0.0504 1.35525272e-20 0.0504"></polygon>
    </defs>
    <g id="Group-2" stroke="none" stroke-width="1" fill="none" fill-rule="evenodd" transform="translate(658.000000, -319.000000)">
        <g id="Group-4"></g>
        <g id="Page-1" transform="translate(116.000000, 144.000000)">
            <g id="Group-3" transform="translate(0.000000, 0.950000)">
                <mask id="mask-2" fill="white">
                    <use xlink:href="#path-1"></use>
                </mask>
                <g id="Clip-2"></g>
                <path d="M264.9027,33.1194 L264.9297,33.0794 C225.4077,10.6684 182.2777,0.0504 133.6167,0.0504 C84.9547,0.0504 42.5297,10.6684 3.0037,33.0794 L2.7177,33.2084 C0.4517,34.1784 -0.6053,36.8184 0.3537,39.1004 L65.9477,207.0694 C66.6797,208.8164 68.3787,209.8304 70.1497,209.7944 C70.4847,209.8744 70.8057,210.0004 71.1667,210.0004 L196.0657,210.0004 L202.9087,209.9734 C204.6127,209.9104 206.2097,208.7404 206.8867,207.0424 L267.2307,38.8864 C268.1317,36.6354 267.0797,34.1024 264.9027,33.1194" id="Fill-1" fill="#222222" mask="url(#mask-2)"></path>
            </g>
            <path d="M196.8936,198.1255 L75.6376,198.1255 L15.0416,42.9655 C15.0546,42.9565 15.0636,42.9565 15.0806,42.9485 C51.1606,23.0485 89.5216,13.8245 133.6226,13.8245 C177.6376,13.8245 216.6116,23.0485 252.6106,42.8545 L196.8936,198.1255 Z" id="Fill-4" fill="#A27E5F"></path>
            <path d="M184.9825,180.9812 L167.8625,180.9812 C165.5005,180.9812 163.5825,182.8972 163.5825,185.2672 C163.5825,187.6372 165.5005,189.5532 167.8625,189.5532 L184.9825,189.5532 C187.3455,189.5532 189.2625,187.6372 189.2625,185.2672 C189.2625,182.9012 187.3495,180.9812 184.9825,180.9812 L184.9825,180.9812 Z M150.7425,180.9812 L133.6225,180.9812 C131.2605,180.9812 129.3425,182.8972 129.3425,185.2672 C129.3425,187.6372 131.2605,189.5532 133.6225,189.5532 L150.7425,189.5532 C153.1055,189.5532 155.0225,187.6372 155.0225,185.2672 C155.0225,182.9012 153.1095,180.9812 150.7425,180.9812 L150.7425,180.9812 Z M116.5025,180.9812 L99.3835,180.9812 C97.0205,180.9812 95.1035,182.8972 95.1035,185.2672 C95.1035,187.6372 97.0205,189.5532 99.3835,189.5532 L116.5025,189.5532 C118.8655,189.5532 120.7825,187.6372 120.7825,185.2672 C120.7825,182.9012 118.8695,180.9812 116.5025,180.9812 L116.5025,180.9812 Z M82.6865,157.0862 C81.7885,154.8832 79.2205,153.8122 76.9515,154.6862 C74.6835,155.5602 73.5745,158.0512 74.4775,160.2542 L81.0045,176.1852 C81.9035,178.3842 84.4755,179.4592 86.7405,178.5852 C89.0085,177.7112 90.1165,175.2212 89.2135,173.0172 L82.6865,157.0862 Z M74.6405,137.0062 L68.1095,121.0752 C67.2105,118.8722 64.6385,117.7962 62.3745,118.6702 C60.1055,119.5452 59.0015,122.0392 59.9005,124.2382 L66.4275,140.1692 C67.3265,142.3722 69.8945,143.4482 72.1625,142.5742 C74.4355,141.6952 75.5435,139.2002 74.6405,137.0062 L74.6405,137.0062 Z M59.9255,100.5832 L53.3995,84.6522 C52.4955,82.4532 49.9275,81.3772 47.6635,82.2512 C45.3955,83.1262 44.2865,85.6162 45.1905,87.8192 L51.7215,103.7502 C52.6245,105.9532 55.1925,107.0252 57.4565,106.1512 C59.7205,105.2762 60.8295,102.7862 59.9255,100.5832 L59.9255,100.5832 Z M44.8175,63.3282 L38.1835,46.7072 C37.1525,44.4102 34.9055,43.2872 32.3155,44.2002 C29.7265,45.1132 29.0115,47.7142 30.0385,50.0072 L36.6725,66.6332 C37.7045,68.9262 40.0845,70.1822 42.6775,69.2692 C45.2755,68.3602 45.8495,65.6262 44.8175,63.3282 L44.8175,63.3282 Z" id="Fill-6" fill="#222222"></path>
            <path d="M80.4228,107.248 C79.8318,107.617 79.1948,107.917 78.5268,108.131 L99.3878,163.837 C100.1918,165.401 101.3048,168.123 103.6678,168.123 L163.5868,168.123 C165.9498,168.123 167.0618,166.07 167.8668,163.837 L188.1068,109.785 C148.7268,121.298 119.9828,89.388 80.4228,107.248 L80.4228,107.248 Z M159.7178,159.551 L107.0868,159.551 L90.5488,113.711 C91.1268,113.531 91.6708,113.283 92.1798,112.979 C112.5268,103.219 155.8148,126.291 174.3298,120.663 L159.7178,159.551 Z" id="Fill-8" fill="#222222"></path>
        </g>
    </g>
</svg>