<svg width="500px" height="500px" viewBox="623 -804 500 500" version="1.1" xmlns="http://www.w3.org/2000/svg" xmlns:xlink="http://www.w3.org/1999/xlink">
    <defs>
        <polygon id="path-1" points="471.080842 198.670064 471.080842 397.080831 0 397.080831 0 198.670064 0 0.25929746 471.080842 0.25929746"></polygon>
    </defs>
    <g id="Group-2" stroke="none" stroke-width="1" fill="none" fill-rule="evenodd" transform="translate(623.000000, -804.000000)">
        <g id="Group-4"></g>
        <g id="Page-1" transform="translate(14.000000, 51.000000)">
            <g id="Group-3" transform="translate(0.000000, 0.659963)">
                <mask id="mask-2" fill="white">
                    <use xlink:href="#path-1"></use>
                </mask>
                <g id="Clip-2"></g>
                <path d="M251.243852,114.740826 L251.243852,308.272692 L236.860273,308.272692 C237.668101,305.283556 237.827275,302.071062 237.273388,298.848457 L222.470253,212.661695 C221.435166,206.642979 218.153248,201.272277 213.614503,197.35478 L213.614503,162.193824 C221.086456,156.920554 226.640967,148.859445 228.117692,139.827695 L232.10715,114.739907 L251.243852,114.739907 L251.243852,114.740826 Z M62.9627758,248.160905 L68.6258558,215.200438 C69.4750877,210.26818 74.5327563,205.942572 79.5416608,205.787233 L100.848827,205.787233 C101.019041,205.787233 101.185575,205.782637 101.35855,205.772526 L196.501053,205.772526 C201.599205,205.772526 206.827088,210.176263 207.690121,215.197681 L213.352281,248.160905 L62.9627758,248.160905 Z M439.741146,0.25929746 L383.73508,0.25929746 L372.17614,0.25929746 L289.007532,0.25929746 L282.579867,0.25929746 L218.868148,0.25929746 L209.521076,0.25929746 L57.4229864,0.25929746 C49.1330838,0.25929746 41.7798207,3.53613349 36.7147914,9.48866928 C31.7242885,15.3548032 29.6173099,23.3396208 30.9284211,31.3630434 L48.1734425,139.827695 C48.1752827,139.838725 48.1771228,139.849755 48.179883,139.860785 C49.6566082,148.881505 55.2175595,156.938018 62.6968733,162.207612 L62.6968733,166.990046 L58.1599688,166.990046 C26.0906511,166.990046 0,193.053071 0,225.089773 L0,243.741542 C0,254.438826 8.71129825,263.142434 19.4182456,263.142434 C30.1261131,263.142434 38.8374113,254.438826 38.8374113,243.741542 L38.8374113,225.089773 C38.8374113,215.156318 46.3894113,206.957334 56.0566706,205.905806 C55.0151423,208.026327 54.2533177,210.292997 53.8448031,212.661695 L39.0389084,298.846618 C38.4850214,302.070143 38.6441949,305.281718 39.4520234,308.271773 L37.2861598,308.271773 C24.3894269,308.271773 13.8950175,318.754891 13.8950175,331.639796 L13.8950175,373.711981 C13.8950175,386.596886 24.3885068,397.080923 37.2861598,397.080923 L340.207111,397.080923 L391.684554,397.080923 L447.6897,397.080923 C460.586433,397.080923 471.080842,386.597806 471.080842,373.711981 L471.080842,31.568018 C471.079922,14.3051127 457.022051,0.25929746 439.741146,0.25929746 L439.741146,0.25929746 Z" id="Fill-1" fill="#222222" mask="url(#mask-2)"></path>
            </g>
            <path d="M45.7352359,29.6404296 C45.1197037,25.875515 45.9744561,22.4001386 48.1421598,19.8522032 C50.3098635,17.3042679 53.6055828,15.9016166 57.4220663,15.9016166 L209.522916,15.9016166 L218.869988,15.9016166 C222.687392,15.9016166 225.983111,17.3042679 228.149895,19.8522032 C230.317598,22.4001386 231.172351,25.8764342 230.551298,29.6726005 L213.311797,138.105081 C211.881076,146.862 203.167938,154.259469 194.286425,154.259469 L82.0083899,154.259469 C73.1323977,154.259469 64.4210994,146.869353 62.9820975,138.117949 L45.7352359,29.6404296 Z M23.8410604,225.749644 L23.8410604,244.401413 C23.8410604,246.83721 21.8573723,248.819857 19.4191657,248.819857 C16.9809591,248.819857 14.998191,246.83721 14.998191,244.401413 L14.998191,225.749644 C14.998191,201.97443 34.3593918,182.632365 58.1599688,182.632365 L70.1955088,182.632365 C74.3376998,182.632365 77.6941442,179.279238 77.6941442,175.141141 L77.6941442,169.897284 L198.617232,169.897284 L198.617232,191.449949 L101.147852,191.449949 C101.076086,191.449949 101.00248,191.450868 100.931634,191.452707 C100.842386,191.455464 100.755899,191.46006 100.665731,191.464656 L79.8176842,191.464656 L79.8176842,191.449949 C79.7146355,191.449949 79.6134269,191.462818 79.5112982,191.464656 L58.1590487,191.464656 C39.234885,191.464656 23.8410604,206.845104 23.8410604,225.749644 L23.8410604,225.749644 Z M53.8190409,302.042476 L60.3893177,263.803224 L215.925739,263.803224 L222.493255,302.043395 C222.828164,303.991113 222.43253,305.751321 221.381801,306.997714 C220.329232,308.245025 218.65929,308.932564 216.681123,308.932564 L59.6330136,308.932564 C57.6530058,308.932564 55.9839844,308.245025 54.9304951,306.997714 C53.8797661,305.751321 53.4841326,303.991113 53.8190409,302.042476 L53.8190409,302.042476 Z M400.079345,374.370933 C400.079345,378.994351 396.314386,382.757427 391.685474,382.757427 L340.206191,382.757427 L37.2861598,382.757427 C32.6581676,382.757427 28.8922885,378.994351 28.8922885,374.370933 L28.8922885,332.298748 C28.8922885,327.67533 32.6572476,323.913173 37.2861598,323.913173 L258.742487,323.913173 C262.884678,323.913173 266.241123,320.560046 266.241123,316.421949 L266.241123,32.2278891 C266.241123,23.225552 273.570464,15.9016166 282.579867,15.9016166 L289.007532,15.9016166 L372.177981,15.9016166 L383.73692,15.9016166 C392.748164,15.9016166 400.079345,23.2246328 400.079345,32.2278891 L400.079345,374.370933 Z M456.082651,374.370933 C456.082651,378.994351 452.317692,382.757427 447.68878,382.757427 L413.510643,382.757427 C414.516288,380.152503 415.074776,377.326979 415.074776,374.370933 L415.074776,32.2278891 C415.074776,26.2496166 413.387353,20.6583141 410.464265,15.9016166 L439.741146,15.9016166 C448.75147,15.9016166 456.081731,23.2246328 456.081731,32.2278891 L456.081731,374.370933 L456.082651,374.370933 Z" id="Fill-4" fill="#A27E5F"></path>
            <path d="M340.205271,50.6682494 C325.555789,50.6682494 313.637099,62.5760785 313.637099,77.212 L313.637099,198.941173 C313.637099,213.578014 325.555789,225.485843 340.205271,225.485843 C354.856593,225.485843 366.777123,213.578014 366.777123,198.941173 L366.777123,77.212 C366.777123,62.5760785 354.856593,50.6682494 340.205271,50.6682494 L340.205271,50.6682494 Z M351.779852,84.9412887 L334.18152,84.9412887 L334.18152,99.9237367 L351.780772,99.9237367 L351.780772,107.763326 L343.079595,107.763326 L343.079595,122.745774 L351.780772,122.745774 L351.780772,130.585363 L334.18152,130.585363 L334.18152,145.567811 L351.780772,145.567811 L351.780772,153.4074 L343.079595,153.4074 L343.079595,168.389848 L351.780772,168.389848 L351.780772,176.229436 L334.18152,176.229436 L334.18152,191.211885 L351.780772,191.211885 L351.780772,198.941173 C351.780772,205.315607 346.587852,210.503395 340.206191,210.503395 C333.82545,210.503395 328.63529,205.316527 328.63529,198.941173 L328.63529,77.212 C328.63529,70.8366467 333.82545,65.6506975 340.206191,65.6506975 C346.588772,65.6506975 351.780772,70.8366467 351.780772,77.212 L351.780772,84.9412887 L351.779852,84.9412887 Z" id="Fill-6" fill="#222222"></path>
            <path d="M340.205271,318.324628 C325.555789,318.324628 313.637099,330.233376 313.637099,344.870217 C313.637099,359.506139 325.555789,371.413048 340.205271,371.413048 C354.856593,371.413048 366.777123,359.506139 366.777123,344.870217 C366.777123,330.233376 354.856593,318.324628 340.205271,318.324628 M340.205271,356.4306 C333.82453,356.4306 328.63437,351.244651 328.63437,344.870217 C328.63437,338.493945 333.82453,333.307076 340.205271,333.307076 C346.587852,333.307076 351.779852,338.493945 351.779852,344.870217 C351.779852,351.244651 346.586932,356.4306 340.205271,356.4306" id="Fill-8" fill="#222222"></path>
            <path d="M251.243852,32.2279811 L251.243852,100.418341 L234.489232,100.418341 L245.358113,32.0570157 C246.281871,26.399533 245.511766,20.7815746 243.247454,15.9026277 L255.853442,15.9026277 C252.932195,20.6593252 251.243852,26.2497085 251.243852,32.2279811" id="Fill-10" fill="#A27E5F"></path>
        </g>
    </g>
</svg>