<svg width="500px" height="500px" viewBox="658 181 500 500" version="1.1" xmlns="http://www.w3.org/2000/svg" xmlns:xlink="http://www.w3.org/1999/xlink">
    <defs></defs>
    <g id="Group-2" stroke="none" stroke-width="1" fill="none" fill-rule="evenodd" transform="translate(658.000000, 181.000000)">
        <g id="Group-4"></g>
        <g id="Page-1" transform="translate(156.000000, 174.000000)">
            <g id="Group-3" transform="translate(0.000000, 0.136000)" fill="#222222">
                <path d="M187.7094,144.2638 L149.6344,54.7298 C135.1064,16.3098 113.8744,0.8638 92.8154,0.8638 C71.7554,0.8638 52.1564,16.3088 37.6284,54.7288 L0.3694,144.2638 C-0.2946,146.0198 -0.0536,147.9888 1.0134,149.5338 C2.0804,151.0788 3.8374,151.9998 5.7144,151.9998 L182.3654,151.9998 C184.2414,151.9998 185.9994,151.0788 187.0664,149.5338 C188.1334,147.9888 188.3734,146.0198 187.7094,144.2638" id="Fill-1"></path>
            </g>
            <path d="M13.9843,140.7068 L48.3173,58.9078 C60.8603,25.7388 77.0793,12.4288 92.8153,12.4288 C108.5503,12.4288 126.4013,25.7378 138.9443,58.9078 L174.0953,140.7068 L13.9843,140.7068 Z" id="Fill-4" fill="#A27E5F"></path>
            <path d="M119.4319,61.7446 L117.7179,61.7446 C114.5619,61.7446 112.0039,59.1866 112.0039,56.0306 C112.0039,52.8746 114.5619,50.3166 117.7179,50.3166 L119.4319,50.3166 C122.5879,50.3166 125.1459,52.8746 125.1459,56.0306 C125.1459,59.1866 122.5879,61.7446 119.4319,61.7446 L119.4319,61.7446 Z M104.3709,40.1896 L102.6569,40.1896 C99.5009,40.1896 96.9429,37.6316 96.9429,34.4756 C96.9429,31.3196 99.5009,28.7616 102.6569,28.7616 L104.3709,28.7616 C107.5269,28.7616 110.0849,31.3186 110.0849,34.4756 C110.0849,37.6316 107.5269,40.1896 104.3709,40.1896 L104.3709,40.1896 Z M104.3709,125.7736 L102.6569,125.7736 C99.5009,125.7736 96.9429,123.2146 96.9429,120.0586 C96.9429,116.9026 99.5009,114.3446 102.6569,114.3446 L104.3709,114.3446 C107.5269,114.3446 110.0849,116.9026 110.0849,120.0586 C110.0849,123.2146 107.5269,125.7736 104.3709,125.7736 L104.3709,125.7736 Z M91.9559,61.7446 C88.8009,61.7446 86.2419,59.1866 86.2419,56.0306 C86.2419,52.8746 88.8009,50.3166 91.9559,50.3166 L93.6719,50.3166 C96.8279,50.3166 99.3869,52.8746 99.3869,56.0306 C99.3869,59.1866 96.8289,61.7446 93.6719,61.7446 L91.9559,61.7446 Z M82.9729,85.8146 L81.2579,85.8146 C78.1019,85.8146 75.5439,83.2566 75.5439,80.1006 C75.5439,76.9446 78.1019,74.3856 81.2579,74.3856 L82.9729,74.3856 C86.1289,74.3856 88.6869,76.9446 88.6869,80.1006 C88.6869,83.2566 86.1289,85.8146 82.9729,85.8146 L82.9729,85.8146 Z M81.2569,28.7616 L82.9719,28.7616 C86.1279,28.7616 88.6859,31.3196 88.6859,34.4756 C88.6859,37.6316 86.1279,40.1896 82.9719,40.1896 L81.2569,40.1896 C78.1009,40.1896 75.5429,37.6316 75.5429,34.4756 C75.5429,31.3196 78.1009,28.7616 81.2569,28.7616 L81.2569,28.7616 Z M67.9109,61.7446 L66.1949,61.7446 C63.0389,61.7446 60.4809,59.1866 60.4809,56.0306 C60.4809,52.8746 63.0389,50.3166 66.1949,50.3166 L67.9109,50.3166 C71.0679,50.3166 73.6249,52.8746 73.6249,56.0306 C73.6249,59.1866 71.0669,61.7446 67.9109,61.7446 L67.9109,61.7446 Z" id="Fill-6" fill="#222222"></path>
            <path d="M82.9728,74.386 L81.2578,74.386 C78.1018,74.386 75.5438,76.944 75.5438,80.1 C75.5438,83.256 78.1018,85.814 81.2578,85.814 L82.9728,85.814 C86.1288,85.814 88.6868,83.256 88.6868,80.1 C88.6868,76.944 86.1288,74.386 82.9728,74.386" id="Fill-8" fill="#222222"></path>
            <path d="M67.911,50.3161 L66.195,50.3161 C63.039,50.3161 60.481,52.8741 60.481,56.0301 C60.481,59.1861 63.039,61.7441 66.195,61.7441 L67.911,61.7441 C71.067,61.7441 73.625,59.1861 73.625,56.0301 C73.625,52.8741 71.068,50.3161 67.911,50.3161" id="Fill-10" fill="#222222"></path>
            <path d="M99.3865,56.0303 C99.3865,52.8743 96.8285,50.3163 93.6725,50.3163 L91.9565,50.3163 C88.8005,50.3163 86.2425,52.8743 86.2425,56.0303 C86.2425,59.1863 88.8005,61.7443 91.9565,61.7443 L93.6725,61.7443 C96.8285,61.7443 99.3865,59.1863 99.3865,56.0303" id="Fill-12" fill="#222222"></path>
            <path d="M81.2569,40.1897 L82.9719,40.1897 C86.1279,40.1897 88.6859,37.6317 88.6859,34.4757 C88.6859,31.3197 86.1279,28.7617 82.9719,28.7617 L81.2569,28.7617 C78.1009,28.7617 75.5429,31.3197 75.5429,34.4757 C75.5429,37.6317 78.1009,40.1897 81.2569,40.1897" id="Fill-14" fill="#222222"></path>
            <path d="M119.4319,50.3161 L117.7179,50.3161 C114.5619,50.3161 112.0039,52.8741 112.0039,56.0301 C112.0039,59.1861 114.5619,61.7441 117.7179,61.7441 L119.4319,61.7441 C122.5879,61.7441 125.1459,59.1861 125.1459,56.0301 C125.1459,52.8741 122.5879,50.3161 119.4319,50.3161" id="Fill-16" fill="#222222"></path>
            <path d="M104.3709,114.3447 L102.6569,114.3447 C99.5009,114.3447 96.9429,116.9027 96.9429,120.0587 C96.9429,123.2147 99.5009,125.7727 102.6569,125.7727 L104.3709,125.7727 C107.5269,125.7727 110.0849,123.2147 110.0849,120.0587 C110.0849,116.9027 107.5269,114.3447 104.3709,114.3447" id="Fill-18" fill="#222222"></path>
            <path d="M104.3709,28.7613 L102.6569,28.7613 C99.5009,28.7613 96.9429,31.3193 96.9429,34.4753 C96.9429,37.6313 99.5009,40.1893 102.6569,40.1893 L104.3709,40.1893 C107.5269,40.1893 110.0849,37.6313 110.0849,34.4753 C110.0849,31.3193 107.5269,28.7613 104.3709,28.7613" id="Fill-20" fill="#222222"></path>
        </g>
    </g>
</svg>