<svg width="500px" height="500px" viewBox="1428 589 500 500" version="1.1" xmlns="http://www.w3.org/2000/svg" xmlns:xlink="http://www.w3.org/1999/xlink">
    <defs>
        <polygon id="path-1" points="64.595 0.4671 64.595 63.6311 0.808924738 63.6311 0.808924738 0.4671 64.595 0.4671"></polygon>
    </defs>
    <g id="Group-2" stroke="none" stroke-width="1" fill="none" fill-rule="evenodd" transform="translate(1428.000000, 589.000000)">
        <g id="Group-4"></g>
        <g id="Page-1" transform="translate(188.000000, 181.000000)">
            <path d="M65.9285,65.4677 C64.9405,65.5437 63.9385,65.7107 62.9365,65.8627 C62.1435,61.9257 61.0435,58.0507 59.4155,54.3487 C52.0325,37.5037 37.9275,26.1907 24.3095,26.1907 C21.1505,26.1907 18.1235,26.8147 15.3125,28.0417 C0.2335,34.5997 -4.5265,57.0797 4.7215,78.1537 C8.8195,87.5047 15.1315,95.1787 22.5425,100.2457 C18.2695,112.0237 19.5915,123.3707 26.6615,130.5597 C30.3845,134.3377 35.4225,136.6947 41.2465,137.3457 C52.9365,138.6557 66.8125,133.0137 77.4655,122.6297 C93.9575,106.5467 98.0005,83.9137 86.4835,72.2127 C81.6065,67.2497 74.2995,64.8367 65.9285,65.4677" id="Fill-1" fill="#212121"></path>
            <path d="M27.9349,36.4709 L28.6099,33.6289 C38.0599,35.8129 47.6689,44.8659 53.0409,57.1289 C54.4259,60.2829 55.4769,63.5609 56.1729,66.9029 C52.6239,67.8939 49.1029,69.3979 45.7559,71.3669 C44.5029,69.3909 43.0209,67.4229 41.2809,65.4189 L39.7159,63.6169 C27.3159,49.3369 25.4089,47.1389 27.9349,36.4709 M34.4619,68.1499 L36.0209,69.9459 C37.8439,72.0459 39.2289,74.0769 40.4189,76.1079 C40.0569,76.3929 39.7089,76.7249 39.3469,77.0169 C38.3519,75.6579 37.2939,74.3269 36.0419,73.0169 C27.7049,65.1139 22.8619,57.7039 21.8249,51.2989 C24.0029,56.1029 28.1789,60.9199 34.4619,68.1499 M11.0949,75.3809 C3.3849,57.8079 6.5309,39.4239 18.0959,34.3909 C19.3199,33.8579 20.6079,33.4969 21.9509,33.2959 C20.1619,34.7309 15.3749,39.2789 14.7279,47.0349 C13.9409,56.4909 19.5079,66.9229 31.1149,77.8829 C32.0959,78.9229 32.9589,79.9629 33.7729,81.0859 C32.8619,82.0349 31.9709,83.0059 31.1149,84.0659 C28.6929,87.0259 26.5919,90.1869 24.8309,93.5079 C19.1669,89.1609 14.3659,82.8599 11.0949,75.3809 M32.1729,95.8299 C34.4339,91.9129 37.2519,88.2949 40.5439,85.0849 C42.0259,83.6369 43.5919,82.3819 45.1639,81.1689 C47.4399,79.4219 49.5339,78.0419 51.5589,76.9329 C56.3609,74.3269 61.5099,72.7459 66.4369,72.3929 C68.1269,72.2679 69.7629,72.2959 71.3009,72.4689 C75.5309,72.9399 78.9619,74.4999 81.4949,77.0719 C82.4549,78.0359 83.2549,79.1169 83.9089,80.2819 C82.7059,79.5809 79.9849,78.2369 76.2549,77.8209 C71.3209,77.2659 66.3249,78.5899 61.8299,81.6399 C57.3489,84.6759 53.1869,89.5769 49.4649,96.1969 C47.7949,99.1779 46.4449,101.9229 45.3029,104.6549 C39.2499,117.0069 32.1659,117.0069 31.9499,116.9939 L27.2319,116.6539 C26.2649,110.5609 27.9209,103.1709 32.1729,95.8299 M66.8189,86.6729 C63.1519,90.3949 60.1389,95.9619 55.6439,104.2729 L54.5099,106.3739 C51.2599,112.3699 47.7249,116.3629 44.0649,118.1999 C46.6259,115.7799 49.2629,112.3559 51.6499,107.4689 C52.7699,104.7999 54.0089,102.2839 55.5459,99.5529 C58.7399,93.8749 62.1709,89.7709 65.7619,87.3379 C66.1089,87.1029 66.4639,86.8809 66.8189,86.6729 M72.5809,117.6729 C63.3889,126.6359 51.6769,131.5369 42.0189,130.4559 C37.7469,129.9769 34.2529,128.3829 31.6299,125.7069 C30.8849,124.9519 30.2239,124.1199 29.6609,123.2249 C31.1779,124.3619 46.8409,135.1619 60.6399,109.6589 L61.7739,107.5589 C70.7579,90.9499 72.1419,88.3919 83.0399,86.9569 L85.9899,86.5619 C87.3049,95.9479 82.4409,108.0369 72.5809,117.6729" id="Fill-3" fill="#B81E5F"></path>
            <g id="Group-7" transform="translate(59.000000, 0.533000)">
                <mask id="mask-2" fill="white">
                    <use xlink:href="#path-1"></use>
                </mask>
                <g id="Clip-6"></g>
                <path d="M64.3015,20.3131 L64.3155,20.3131 L64.3015,20.2991 C63.5775,15.4261 61.5395,10.9761 58.0945,7.4541 C53.6825,2.9481 47.4135,0.4671 40.4055,0.4671 C30.9915,0.4671 21.1515,4.7711 13.4205,12.2791 C6.7685,18.7331 2.4195,26.7951 1.1735,34.9811 C0.7635,37.6851 0.7005,40.2981 0.9785,42.7801 L1.0485,43.3481 C1.7305,48.5061 3.8805,53.0671 7.3665,56.6371 C11.7715,61.1431 18.0555,63.6311 25.0555,63.6311 L25.0625,63.6311 C34.4705,63.6311 44.3025,59.3271 52.0475,51.8191 C61.5115,42.6341 65.8045,30.5521 64.3015,20.3131" id="Fill-5" fill="#212121" mask="url(#mask-2)"></path>
            </g>
            <path d="M67.1601,44.1932 C66.6941,41.8362 66.6521,39.2642 67.0561,36.5542 C68.0721,29.8442 71.6971,23.1752 77.2641,17.7822 C83.7281,11.5222 91.7861,7.9312 99.4061,7.9312 C104.5831,7.9312 108.9811,9.6232 112.0981,12.8262 C112.3901,13.1242 112.6621,13.4292 112.9261,13.7472 C111.0821,12.9362 108.4731,12.1252 105.3691,12.1252 C98.5151,12.1252 88.8011,16.1182 81.6481,34.9592 C77.4661,44.1792 72.2681,44.6782 71.1401,44.6782 L67.1601,44.1932 Z M98.5151,21.4702 C96.0031,24.5962 93.7621,29.0052 90.6661,35.1192 L89.7751,36.8802 C88.2371,39.9162 86.0521,43.3202 83.2481,45.3512 C84.9321,43.4242 86.5811,40.8932 88.0701,37.6142 C91.0561,29.7952 94.5911,24.3602 98.5151,21.4702 L98.5151,21.4702 Z M106.1971,47.3752 C99.7401,53.6342 91.6681,57.2252 84.0621,57.2252 C79.0381,57.2252 74.7731,55.6382 71.6691,52.6362 C73.3181,53.3852 75.5591,54.0782 78.1821,54.0782 C83.0461,54.0782 90.0881,51.6312 96.0101,40.0062 L96.9081,38.2382 C104.0541,24.1252 104.9731,22.3092 114.0331,21.5882 L116.4121,21.4002 C117.8391,29.5182 114.2001,39.6182 106.1971,47.3752 L106.1971,47.3752 Z" id="Fill-8" fill="#B81E5F"></path>
        </g>
    </g>
</svg>